<svg width="27" height="17" viewBox="0 0 27 17" fill="none" xmlns="http://www.w3.org/2000/svg">
<path d="M0 1.00632V15.9154L8.32979 8.45858C5.73973 6.16062 2.05851 2.85634 0 1.00632ZM12.2768 9.93584C12.4452 10.0662 12.8991 10.3684 13.4835 10.3684C13.9688 10.3684 14.4393 10.1613 14.8817 9.75329C15.9035 8.80987 22.8136 2.71215 25.8907 0H1.10932C6.14912 4.52842 11.6891 9.48331 12.2751 9.93584H12.2768ZM18.558 8.46779L27 16.0244V1.00938C24.8854 2.87322 21.115 6.19897 18.558 8.46779ZM16.0158 10.7366C15.2779 11.4192 14.403 11.7813 13.4868 11.7813C12.6862 11.7813 11.8905 11.5067 11.2434 11.0051C11.0602 10.8624 10.4576 10.3408 9.45231 9.45416L1.02348 17H25.856L17.4354 9.46336C16.6843 10.1307 16.2205 10.5494 16.0158 10.7366Z" fill="#0C2340"/>
</svg>
