<svg width="82" height="57" viewBox="0 0 82 57" fill="none" xmlns="http://www.w3.org/2000/svg">
<g clip-path="url(#clip0_56_230)">
<path d="M13.1871 27.6925L16.4967 29.7921L10.4656 30.714L41.3765 48.6396L73.7773 43.6869L65.2657 38.7521L69.284 38.3029L81.1229 45.1696L41.1448 51.2805L3.12009 29.2313L13.1871 27.6925Z" fill="#F2B941"/>
<path d="M13.2334 21.4148L16.3612 23.5422L10.0516 24.5066L40.9625 42.4322L73.3632 37.4795L66.0464 33.2393L69.8322 32.6606L80.7088 38.9622L40.7308 45.0731L2.70602 23.024L13.2334 21.4148Z" fill="#102858"/>
<path d="M40.3177 38.8744L80.2957 32.7634L42.271 10.7142L2.29294 16.8252L40.3177 38.8744ZM72.9558 31.2799L40.5551 36.2326L9.63848 18.3079L42.0393 13.3552L72.9502 31.2807L72.9558 31.2799Z" fill="#5E7BAB"/>
</g>
<defs>
<clipPath id="clip0_56_230">
<rect width="76.5516" height="49.3739" fill="white" transform="matrix(-0.994945 0.100424 0.100424 0.994945 76.1646 0)"/>
</clipPath>
</defs>
</svg>
