<svg width="18" height="19" viewBox="0 0 18 19" fill="none" xmlns="http://www.w3.org/2000/svg">
<path fill-rule="evenodd" clip-rule="evenodd" d="M14.8874 18.6614H2.98776C1.34339 18.6614 0 17.318 0 15.6736V3.77397C0 2.1296 1.34339 0.786209 2.98776 0.786209H14.8874C16.5318 0.786209 17.8752 2.1296 17.8752 3.77397V15.6736C17.8752 17.3253 16.5391 18.6614 14.8874 18.6614ZM8.94168 14.3161C7.71574 14.3161 6.56321 13.8389 5.69698 12.9727C4.83075 12.1064 4.35359 10.9539 4.35359 9.72797C4.35359 8.50203 4.83075 7.3495 5.69698 6.48327C6.56321 5.61704 7.71574 5.13988 8.94168 5.13988C10.1676 5.13988 11.3201 5.61704 12.1864 6.48327C13.0526 7.3495 13.5298 8.50203 13.5298 9.72797C13.5298 10.9539 13.0526 12.1064 12.1864 12.9727C11.3128 13.8389 10.1676 14.3161 8.94168 14.3161ZM8.94168 6.11622C6.95229 6.11622 5.32994 7.73123 5.32994 9.72797C5.32994 11.7174 6.94494 13.3397 8.94168 13.3397C10.9311 13.3397 12.5534 11.7247 12.5534 9.72797C12.5461 7.73857 10.9311 6.11622 8.94168 6.11622ZM15.3042 4.10788C15.3042 4.5944 14.9098 4.98881 14.4232 4.98881C13.9367 4.98881 13.5423 4.5944 13.5423 4.10788C13.5423 3.62135 13.9367 3.22694 14.4232 3.22694C14.9098 3.22694 15.3042 3.62135 15.3042 4.10788Z" fill="white"/>
</svg>
