<svg width="22" height="21" viewBox="0 0 22 21" fill="none" xmlns="http://www.w3.org/2000/svg">
<path d="M4.94515 6.8581H0.587515V20.7543H4.94515V6.8581Z" fill="white"/>
<path d="M16.7334 6.55656C16.5727 6.53648 16.402 6.52644 16.2313 6.51639C13.7915 6.41599 12.4159 7.86184 11.934 8.48436C11.8034 8.65505 11.7432 8.75546 11.7432 8.75546V6.89794H7.57633V20.7942H11.7432H11.934C11.934 19.3784 11.934 17.9728 11.934 16.557C11.934 15.7939 11.934 15.0309 11.934 14.2678C11.934 13.3239 11.8637 12.3199 12.3356 11.4564C12.7372 10.7335 13.4601 10.372 14.2734 10.372C16.6832 10.372 16.7334 12.5508 16.7334 12.7516C16.7334 12.7617 16.7334 12.7717 16.7334 12.7717V20.8544H21.091V11.7877C21.091 8.68517 19.5146 6.85778 16.7334 6.55656Z" fill="white"/>
<path d="M2.76613 5.06048C4.16355 5.06048 5.29638 3.92765 5.29638 2.53024C5.29638 1.13283 4.16355 0 2.76613 0C1.36872 0 0.235897 1.13283 0.235897 2.53024C0.235897 3.92765 1.36872 5.06048 2.76613 5.06048Z" fill="white"/>
</svg>
