<svg width="24" height="24" viewBox="0 0 24 24" fill="none" xmlns="http://www.w3.org/2000/svg">
<path d="M23.4716 20.9218L18.6762 16.1264C18.2802 15.7304 17.7462 15.5573 17.2292 15.6065L15.9704 14.3477C17.1702 12.7964 17.8206 10.9033 17.8206 8.91014C17.8206 6.53017 16.8939 4.29247 15.2108 2.60944C13.5278 0.926746 11.2904 0 8.91046 0C6.53049 0 4.2928 0.926746 2.60977 2.60977C0.926746 4.2928 0 6.53017 0 8.91046C0 11.2908 0.926746 13.5281 2.60977 15.2112C4.2928 16.8942 6.53017 17.8209 8.91046 17.8209C10.9036 17.8209 12.7968 17.1705 14.348 15.9707L15.6068 17.2295C15.5577 17.7465 15.7308 18.2809 16.1268 18.6765L20.9221 23.4719C21.2742 23.824 21.7358 24 22.197 24C22.6582 24 23.1198 23.824 23.4719 23.4719C24.176 22.7677 24.176 21.6263 23.4719 20.9221L23.4716 20.9218ZM1.96692 8.91046C1.96692 5.08186 5.08186 1.96692 8.91046 1.96692C12.7391 1.96692 15.854 5.08186 15.854 8.91046C15.854 12.7391 12.7391 15.854 8.91046 15.854C5.08186 15.854 1.96692 12.7391 1.96692 8.91046Z" fill="white"/>
</svg>
